<svg width="60" height="34" fill="none" xmlns="http://www.w3.org/2000/svg"><path d="m44.471 10.1 4.959-8.59a1.007 1.007 0 0 0-.365-1.373.994.994 0 0 0-1.366.364l-5.024 8.7c-3.833-1.75-8.147-2.726-12.787-2.726-4.64 0-8.955.976-12.788 2.726l-5.024-8.7a1.002 1.002 0 0 0-1.373-.364c-.482.28-.645.892-.365 1.373l4.959 8.59C6.748 14.734.957 23.388 0 33.52h59.777C58.82 23.388 53.03 14.734 44.471 10.1zM16.165 25.126a2.507 2.507 0 0 1 0-5.01 2.507 2.507 0 0 1 0 5.01zm27.442 0a2.507 2.507 0 0 1 0-5.01 2.507 2.507 0 0 1 0 5.01z" fill="#32DE84"/></svg>